<?xml version="1.0" standalone="no"?>
<!DOCTYPE svg PUBLIC "-//W3C//DTD SVG 20010904//EN"
 "http://www.w3.org/TR/2001/REC-SVG-20010904/DTD/svg10.dtd">
<svg version="1.0" xmlns="http://www.w3.org/2000/svg"
 width="512.000000pt" height="512.000000pt" viewBox="0 0 512.000000 512.000000"
 preserveAspectRatio="xMidYMid meet">
<metadata>
Created by potrace 1.14, written by Peter Selinger 2001-2017
</metadata>
<g transform="translate(0.000000,512.000000) scale(0.100000,-0.100000)"
fill="#000000" stroke="none">
<path d="M221 5103 c-102 -35 -171 -106 -205 -208 -15 -47 -16 -235 -14 -2355
l3 -2305 25 -50 c30 -62 91 -122 156 -155 l49 -25 2325 0 2325 0 49 24 c63 31
126 94 156 156 l25 50 0 2325 0 2325 -25 49 c-44 86 -117 148 -205 174 -30 9
-587 12 -2330 11 -2043 0 -2295 -2 -2334 -16z"/>
</g>
</svg>
